<svg xmlns="http://www.w3.org/2000/svg" width="2560" height="1536" viewBox="0 0 2560 1536"><defs><linearGradient id="b"><stop stop-color="#fff"/><stop offset="1" stop-color="#f1f5f9"/></linearGradient><filter id="s"><feDropShadow dy="10" stdDeviation="10" flood-opacity=".18"/></filter><clipPath id="k"><rect width="512" height="512" rx="24"/></clipPath><g id="c"><ellipse cx="115" cy="235" rx="120" ry="25" fill="#cbd5e1"/><rect x="25" y="100" width="180" height="125" rx="20" fill="#fff7ed" stroke="#d6a56f" stroke-width="5"/><path d="M25 140h180M25 180h180" stroke="#e7c59e" stroke-width="8"/></g></defs><g id="p6" fill="#fff" stroke="#cbd5e1" stroke-width="5"><circle cx="70" cy="230" r="40"/><circle cx="150" cy="230" r="31"/><circle cx="225" cy="230" r="24"/><rect x="58" y="40" width="24" height="160" rx="11"/><rect x="138" y="58" width="24" height="142" rx="11"/><rect x="213" y="80" width="24" height="120" rx="11"/></g><g id="p7"><path d="M65 220L165 65q18-28 46-10l30 20q28 18 10 46L145 275z" fill="#cbd5e1" stroke="#64748b" stroke-width="5"/><rect x="175" y="25" width="48" height="100" rx="22" transform="rotate(35 199 75)" fill="#111827"/></g><g id="p8" fill="#f8fafc" stroke="#cbd5e1" stroke-width="5"><path d="M25 45h75v195H25z"/><path d="M112 45h75v195h-75v-25l12-12-12-12 12-12-12-12 12-12-12-12 12-12-12-12z"/><path d="M200 45h75v195h-75v-20l9-9-9-9 9-9-9-9 9-9-9-9 9-9-9-9z"/></g><g id="p9"><circle cx="150" cy="150" r="115" fill="none" stroke="#64748b" stroke-width="14"/><path d="M150 35v230M35 150h230M70 70l160 160M230 70L70 230" stroke="#94a3b8" stroke-width="7"/><circle cx="150" cy="150" r="18" fill="#475569"/></g><g id="p10"><ellipse cx="150" cy="70" rx="115" ry="40" fill="none" stroke="#94a3b8" stroke-width="18"/><path d="M35 70v165q0 30 230 0V70" fill="none" stroke="#cbd5e1" stroke-width="18"/><path d="M250 105v100" stroke="#334155" stroke-width="6"/></g><g transform="translate(0 0)" clip-path="url(#k)"><rect width="512" height="512" fill="url(#b)"/><g transform="translate(106 106)" filter="url(#s)"><use href="#p6"/></g><rect x="2" y="2" width="508" height="508" rx="22" fill="none" stroke="#e2e8f0" stroke-width="4"/></g><g transform="translate(0 512)" clip-path="url(#k)"><rect width="512" height="512" fill="url(#b)"/><g transform="translate(270 175)" filter="url(#s)"><use href="#c"/></g><g transform="translate(25 205) scale(.72)"><use href="#p6"/></g><rect x="2" y="2" width="508" height="508" rx="22" fill="none" stroke="#e2e8f0" stroke-width="4"/></g><g transform="translate(0 1024)" clip-path="url(#k)"><rect width="512" height="512" fill="url(#b)"/><circle cx="395" cy="115" r="80" fill="#dbeafe"/><g transform="translate(-25 -25) scale(1.72)"><use href="#p6"/></g><circle cx="395" cy="115" r="80" fill="none" stroke="#2563eb" stroke-width="8"/><path d="M450 170l45 45" stroke="#2563eb" stroke-width="14" stroke-linecap="round"/><rect x="2" y="2" width="508" height="508" rx="22" fill="none" stroke="#e2e8f0" stroke-width="4"/></g><g transform="translate(512 0)" clip-path="url(#k)"><rect width="512" height="512" fill="url(#b)"/><g transform="translate(106 106)" filter="url(#s)"><use href="#p7"/></g><rect x="2" y="2" width="508" height="508" rx="22" fill="none" stroke="#e2e8f0" stroke-width="4"/></g><g transform="translate(512 512)" clip-path="url(#k)"><rect width="512" height="512" fill="url(#b)"/><g transform="translate(270 175)" filter="url(#s)"><use href="#c"/></g><g transform="translate(25 205) scale(.72)"><use href="#p7"/></g><rect x="2" y="2" width="508" height="508" rx="22" fill="none" stroke="#e2e8f0" stroke-width="4"/></g><g transform="translate(512 1024)" clip-path="url(#k)"><rect width="512" height="512" fill="url(#b)"/><circle cx="395" cy="115" r="80" fill="#dbeafe"/><g transform="translate(-25 -25) scale(1.72)"><use href="#p7"/></g><circle cx="395" cy="115" r="80" fill="none" stroke="#2563eb" stroke-width="8"/><path d="M450 170l45 45" stroke="#2563eb" stroke-width="14" stroke-linecap="round"/><rect x="2" y="2" width="508" height="508" rx="22" fill="none" stroke="#e2e8f0" stroke-width="4"/></g><g transform="translate(1024 0)" clip-path="url(#k)"><rect width="512" height="512" fill="url(#b)"/><g transform="translate(106 106)" filter="url(#s)"><use href="#p8"/></g><rect x="2" y="2" width="508" height="508" rx="22" fill="none" stroke="#e2e8f0" stroke-width="4"/></g><g transform="translate(1024 512)" clip-path="url(#k)"><rect width="512" height="512" fill="url(#b)"/><g transform="translate(270 175)" filter="url(#s)"><use href="#c"/></g><g transform="translate(25 205) scale(.72)"><use href="#p8"/></g><rect x="2" y="2" width="508" height="508" rx="22" fill="none" stroke="#e2e8f0" stroke-width="4"/></g><g transform="translate(1024 1024)" clip-path="url(#k)"><rect width="512" height="512" fill="url(#b)"/><circle cx="395" cy="115" r="80" fill="#dbeafe"/><g transform="translate(-25 -25) scale(1.72)"><use href="#p8"/></g><circle cx="395" cy="115" r="80" fill="none" stroke="#2563eb" stroke-width="8"/><path d="M450 170l45 45" stroke="#2563eb" stroke-width="14" stroke-linecap="round"/><rect x="2" y="2" width="508" height="508" rx="22" fill="none" stroke="#e2e8f0" stroke-width="4"/></g><g transform="translate(1536 0)" clip-path="url(#k)"><rect width="512" height="512" fill="url(#b)"/><g transform="translate(106 106)" filter="url(#s)"><use href="#p9"/></g><rect x="2" y="2" width="508" height="508" rx="22" fill="none" stroke="#e2e8f0" stroke-width="4"/></g><g transform="translate(1536 512)" clip-path="url(#k)"><rect width="512" height="512" fill="url(#b)"/><g transform="translate(270 175)" filter="url(#s)"><use href="#c"/></g><g transform="translate(25 205) scale(.72)"><use href="#p9"/></g><rect x="2" y="2" width="508" height="508" rx="22" fill="none" stroke="#e2e8f0" stroke-width="4"/></g><g transform="translate(1536 1024)" clip-path="url(#k)"><rect width="512" height="512" fill="url(#b)"/><circle cx="395" cy="115" r="80" fill="#dbeafe"/><g transform="translate(-25 -25) scale(1.72)"><use href="#p9"/></g><circle cx="395" cy="115" r="80" fill="none" stroke="#2563eb" stroke-width="8"/><path d="M450 170l45 45" stroke="#2563eb" stroke-width="14" stroke-linecap="round"/><rect x="2" y="2" width="508" height="508" rx="22" fill="none" stroke="#e2e8f0" stroke-width="4"/></g><g transform="translate(2048 0)" clip-path="url(#k)"><rect width="512" height="512" fill="url(#b)"/><g transform="translate(106 106)" filter="url(#s)"><use href="#p10"/></g><rect x="2" y="2" width="508" height="508" rx="22" fill="none" stroke="#e2e8f0" stroke-width="4"/></g><g transform="translate(2048 512)" clip-path="url(#k)"><rect width="512" height="512" fill="url(#b)"/><g transform="translate(270 175)" filter="url(#s)"><use href="#c"/></g><g transform="translate(25 205) scale(.72)"><use href="#p10"/></g><rect x="2" y="2" width="508" height="508" rx="22" fill="none" stroke="#e2e8f0" stroke-width="4"/></g><g transform="translate(2048 1024)" clip-path="url(#k)"><rect width="512" height="512" fill="url(#b)"/><circle cx="395" cy="115" r="80" fill="#dbeafe"/><g transform="translate(-25 -25) scale(1.72)"><use href="#p10"/></g><circle cx="395" cy="115" r="80" fill="none" stroke="#2563eb" stroke-width="8"/><path d="M450 170l45 45" stroke="#2563eb" stroke-width="14" stroke-linecap="round"/><rect x="2" y="2" width="508" height="508" rx="22" fill="none" stroke="#e2e8f0" stroke-width="4"/></g></svg>