<svg xmlns="http://www.w3.org/2000/svg" width="2560" height="1536" viewBox="0 0 2560 1536"><defs><linearGradient id="b"><stop stop-color="#fff"/><stop offset="1" stop-color="#f1f5f9"/></linearGradient><filter id="s"><feDropShadow dy="10" stdDeviation="10" flood-opacity=".18"/></filter><clipPath id="k"><rect width="512" height="512" rx="24"/></clipPath><g id="c"><ellipse cx="115" cy="235" rx="120" ry="25" fill="#cbd5e1"/><rect x="25" y="100" width="180" height="125" rx="20" fill="#fff7ed" stroke="#d6a56f" stroke-width="5"/><path d="M25 140h180M25 180h180" stroke="#e7c59e" stroke-width="8"/></g></defs><g id="p11" fill="#cbd5e1" stroke="#64748b" stroke-width="3"><path d="M30 255L18 125h24zM75 255L63 125h24zM120 255l-12-130h24zM165 255l-12-130h24zM210 255l-12-130h24zM255 255l-12-130h24z"/><path d="M65 85h170l-20-48H85z" fill="#7dd3fc"/></g><g id="p12"><ellipse cx="150" cy="248" rx="105" ry="26" fill="#e2e8f0" stroke="#94a3b8" stroke-width="5"/><rect x="137" y="65" width="26" height="175" rx="12" fill="#cbd5e1"/><ellipse cx="150" cy="65" rx="115" ry="30" fill="#f8fafc" stroke="#cbd5e1" stroke-width="6"/><path d="M55 50v30M95 50v30M135 50v30M175 50v30M215 50v30M255 50v30" stroke="#94a3b8" stroke-width="20" stroke-linecap="round"/></g><g id="p13" fill="#38bdf8" opacity=".75" stroke="#0284c7" stroke-width="4"><path d="M30 40h75L85 255H55zM112 30h75l-20 225h-35zM195 50h75l-25 205h-30z"/></g><g id="p14"><g stroke="#64748b" stroke-width="7" fill="#e2e8f0"><path d="M55 90v165M130 90v165M200 90v165"/><circle cx="55" cy="72" r="36"/><circle cx="130" cy="72" r="28"/><circle cx="200" cy="72" r="22"/></g><g fill="none" stroke="#111827" stroke-width="10"><circle cx="225" cy="210" r="27"/><circle cx="266" cy="210" r="27"/><path d="M240 190l-55-78M251 190l36-95"/></g></g><g id="p15"><circle cx="95" cy="110" r="75" fill="#f8fafc" stroke="#cbd5e1" stroke-width="5"/><circle cx="210" cy="190" r="75" fill="#f8fafc" stroke="#cbd5e1" stroke-width="5"/><path d="M95 65v90M50 110h90M65 80l60 60M125 80l-60 60M210 145v90M165 190h90M180 160l60 60M240 160l-60 60" stroke="#94a3b8" stroke-width="7" stroke-dasharray="10 8"/></g><g transform="translate(0 0)" clip-path="url(#k)"><rect width="512" height="512" fill="url(#b)"/><g transform="translate(106 106)" filter="url(#s)"><use href="#p11"/></g><rect x="2" y="2" width="508" height="508" rx="22" fill="none" stroke="#e2e8f0" stroke-width="4"/></g><g transform="translate(0 512)" clip-path="url(#k)"><rect width="512" height="512" fill="url(#b)"/><g transform="translate(270 175)" filter="url(#s)"><use href="#c"/></g><g transform="translate(25 205) scale(.72)"><use href="#p11"/></g><rect x="2" y="2" width="508" height="508" rx="22" fill="none" stroke="#e2e8f0" stroke-width="4"/></g><g transform="translate(0 1024)" clip-path="url(#k)"><rect width="512" height="512" fill="url(#b)"/><circle cx="395" cy="115" r="80" fill="#dbeafe"/><g transform="translate(-25 -25) scale(1.72)"><use href="#p11"/></g><circle cx="395" cy="115" r="80" fill="none" stroke="#2563eb" stroke-width="8"/><path d="M450 170l45 45" stroke="#2563eb" stroke-width="14" stroke-linecap="round"/><rect x="2" y="2" width="508" height="508" rx="22" fill="none" stroke="#e2e8f0" stroke-width="4"/></g><g transform="translate(512 0)" clip-path="url(#k)"><rect width="512" height="512" fill="url(#b)"/><g transform="translate(106 106)" filter="url(#s)"><use href="#p12"/></g><rect x="2" y="2" width="508" height="508" rx="22" fill="none" stroke="#e2e8f0" stroke-width="4"/></g><g transform="translate(512 512)" clip-path="url(#k)"><rect width="512" height="512" fill="url(#b)"/><g transform="translate(270 175)" filter="url(#s)"><use href="#c"/></g><g transform="translate(25 205) scale(.72)"><use href="#p12"/></g><rect x="2" y="2" width="508" height="508" rx="22" fill="none" stroke="#e2e8f0" stroke-width="4"/></g><g transform="translate(512 1024)" clip-path="url(#k)"><rect width="512" height="512" fill="url(#b)"/><circle cx="395" cy="115" r="80" fill="#dbeafe"/><g transform="translate(-25 -25) scale(1.72)"><use href="#p12"/></g><circle cx="395" cy="115" r="80" fill="none" stroke="#2563eb" stroke-width="8"/><path d="M450 170l45 45" stroke="#2563eb" stroke-width="14" stroke-linecap="round"/><rect x="2" y="2" width="508" height="508" rx="22" fill="none" stroke="#e2e8f0" stroke-width="4"/></g><g transform="translate(1024 0)" clip-path="url(#k)"><rect width="512" height="512" fill="url(#b)"/><g transform="translate(106 106)" filter="url(#s)"><use href="#p13"/></g><rect x="2" y="2" width="508" height="508" rx="22" fill="none" stroke="#e2e8f0" stroke-width="4"/></g><g transform="translate(1024 512)" clip-path="url(#k)"><rect width="512" height="512" fill="url(#b)"/><g transform="translate(270 175)" filter="url(#s)"><use href="#c"/></g><g transform="translate(25 205) scale(.72)"><use href="#p13"/></g><rect x="2" y="2" width="508" height="508" rx="22" fill="none" stroke="#e2e8f0" stroke-width="4"/></g><g transform="translate(1024 1024)" clip-path="url(#k)"><rect width="512" height="512" fill="url(#b)"/><circle cx="395" cy="115" r="80" fill="#dbeafe"/><g transform="translate(-25 -25) scale(1.72)"><use href="#p13"/></g><circle cx="395" cy="115" r="80" fill="none" stroke="#2563eb" stroke-width="8"/><path d="M450 170l45 45" stroke="#2563eb" stroke-width="14" stroke-linecap="round"/><rect x="2" y="2" width="508" height="508" rx="22" fill="none" stroke="#e2e8f0" stroke-width="4"/></g><g transform="translate(1536 0)" clip-path="url(#k)"><rect width="512" height="512" fill="url(#b)"/><g transform="translate(106 106)" filter="url(#s)"><use href="#p14"/></g><rect x="2" y="2" width="508" height="508" rx="22" fill="none" stroke="#e2e8f0" stroke-width="4"/></g><g transform="translate(1536 512)" clip-path="url(#k)"><rect width="512" height="512" fill="url(#b)"/><g transform="translate(270 175)" filter="url(#s)"><use href="#c"/></g><g transform="translate(25 205) scale(.72)"><use href="#p14"/></g><rect x="2" y="2" width="508" height="508" rx="22" fill="none" stroke="#e2e8f0" stroke-width="4"/></g><g transform="translate(1536 1024)" clip-path="url(#k)"><rect width="512" height="512" fill="url(#b)"/><circle cx="395" cy="115" r="80" fill="#dbeafe"/><g transform="translate(-25 -25) scale(1.72)"><use href="#p14"/></g><circle cx="395" cy="115" r="80" fill="none" stroke="#2563eb" stroke-width="8"/><path d="M450 170l45 45" stroke="#2563eb" stroke-width="14" stroke-linecap="round"/><rect x="2" y="2" width="508" height="508" rx="22" fill="none" stroke="#e2e8f0" stroke-width="4"/></g><g transform="translate(2048 0)" clip-path="url(#k)"><rect width="512" height="512" fill="url(#b)"/><g transform="translate(106 106)" filter="url(#s)"><use href="#p15"/></g><rect x="2" y="2" width="508" height="508" rx="22" fill="none" stroke="#e2e8f0" stroke-width="4"/></g><g transform="translate(2048 512)" clip-path="url(#k)"><rect width="512" height="512" fill="url(#b)"/><g transform="translate(270 175)" filter="url(#s)"><use href="#c"/></g><g transform="translate(25 205) scale(.72)"><use href="#p15"/></g><rect x="2" y="2" width="508" height="508" rx="22" fill="none" stroke="#e2e8f0" stroke-width="4"/></g><g transform="translate(2048 1024)" clip-path="url(#k)"><rect width="512" height="512" fill="url(#b)"/><circle cx="395" cy="115" r="80" fill="#dbeafe"/><g transform="translate(-25 -25) scale(1.72)"><use href="#p15"/></g><circle cx="395" cy="115" r="80" fill="none" stroke="#2563eb" stroke-width="8"/><path d="M450 170l45 45" stroke="#2563eb" stroke-width="14" stroke-linecap="round"/><rect x="2" y="2" width="508" height="508" rx="22" fill="none" stroke="#e2e8f0" stroke-width="4"/></g></svg>