<svg xmlns="http://www.w3.org/2000/svg" width="2560" height="1536" viewBox="0 0 2560 1536"><defs><linearGradient id="b"><stop stop-color="#fff"/><stop offset="1" stop-color="#f1f5f9"/></linearGradient><filter id="s"><feDropShadow dy="10" stdDeviation="10" flood-opacity=".18"/></filter><clipPath id="k"><rect width="512" height="512" rx="24"/></clipPath><g id="c"><ellipse cx="115" cy="235" rx="120" ry="25" fill="#cbd5e1"/><rect x="25" y="100" width="180" height="125" rx="20" fill="#fff7ed" stroke="#d6a56f" stroke-width="5"/><path d="M25 140h180M25 180h180" stroke="#e7c59e" stroke-width="8"/></g></defs><g id="p1"><ellipse cx="85" cy="55" rx="45" ry="17" fill="#e2e8f0"/><rect x="40" y="55" width="90" height="175" fill="#cbd5e1"/><ellipse cx="85" cy="230" rx="45" ry="17" fill="#94a3b8"/><ellipse cx="85" cy="55" rx="22" ry="8" fill="#fff"/><path d="M125 70q95 15 125 90v100q-55-55-125-60z" fill="#dbeafe" opacity=".7" stroke="#94a3b8" stroke-width="4"/></g><g id="p2" fill="none" stroke="#8b5e3c" stroke-width="18"><ellipse cx="150" cy="70" rx="105" ry="30"/><ellipse cx="150" cy="150" rx="90" ry="27"/><ellipse cx="150" cy="225" rx="72" ry="23"/></g><g id="p3"><path d="M55 255V78q0-48 48-48h94q48 0 48 48v177" fill="none" stroke="#64748b" stroke-width="10"/><path d="M60 110h180M60 155h180M60 200h180" stroke="#94a3b8" stroke-width="5"/><rect x="35" y="250" width="230" height="18" rx="9" fill="#334155"/></g><g id="p4"><ellipse cx="150" cy="75" rx="125" ry="45" fill="#cbd5e1" stroke="#64748b" stroke-width="5"/><path d="M105 110h90l20 80H85z" fill="#94a3b8"/><ellipse cx="150" cy="210" rx="78" ry="25" fill="#475569"/></g><g id="p5" transform="rotate(-12 150 150)"><g><rect x="40" y="35" width="40" height="90" rx="18" fill="#111827"/><rect x="47" y="120" width="26" height="145" rx="8" fill="#cbd5e1"/></g><g transform="translate(90 -5)"><rect x="40" y="35" width="40" height="90" rx="18" fill="#111827"/><rect x="47" y="120" width="26" height="145" rx="8" fill="#e2e8f0"/></g><g transform="translate(180 -15)"><rect x="40" y="35" width="40" height="90" rx="18" fill="#111827"/><rect x="47" y="120" width="26" height="145" rx="8" fill="#f1f5f9"/></g></g><g transform="translate(0 0)" clip-path="url(#k)"><rect width="512" height="512" fill="url(#b)"/><g transform="translate(106 106)" filter="url(#s)"><use href="#p1"/></g><rect x="2" y="2" width="508" height="508" rx="22" fill="none" stroke="#e2e8f0" stroke-width="4"/></g><g transform="translate(0 512)" clip-path="url(#k)"><rect width="512" height="512" fill="url(#b)"/><g transform="translate(270 175)" filter="url(#s)"><use href="#c"/></g><g transform="translate(25 205) scale(.72)"><use href="#p1"/></g><rect x="2" y="2" width="508" height="508" rx="22" fill="none" stroke="#e2e8f0" stroke-width="4"/></g><g transform="translate(0 1024)" clip-path="url(#k)"><rect width="512" height="512" fill="url(#b)"/><circle cx="395" cy="115" r="80" fill="#dbeafe"/><g transform="translate(-25 -25) scale(1.72)"><use href="#p1"/></g><circle cx="395" cy="115" r="80" fill="none" stroke="#2563eb" stroke-width="8"/><path d="M450 170l45 45" stroke="#2563eb" stroke-width="14" stroke-linecap="round"/><rect x="2" y="2" width="508" height="508" rx="22" fill="none" stroke="#e2e8f0" stroke-width="4"/></g><g transform="translate(512 0)" clip-path="url(#k)"><rect width="512" height="512" fill="url(#b)"/><g transform="translate(106 106)" filter="url(#s)"><use href="#p2"/></g><rect x="2" y="2" width="508" height="508" rx="22" fill="none" stroke="#e2e8f0" stroke-width="4"/></g><g transform="translate(512 512)" clip-path="url(#k)"><rect width="512" height="512" fill="url(#b)"/><g transform="translate(270 175)" filter="url(#s)"><use href="#c"/></g><g transform="translate(25 205) scale(.72)"><use href="#p2"/></g><rect x="2" y="2" width="508" height="508" rx="22" fill="none" stroke="#e2e8f0" stroke-width="4"/></g><g transform="translate(512 1024)" clip-path="url(#k)"><rect width="512" height="512" fill="url(#b)"/><circle cx="395" cy="115" r="80" fill="#dbeafe"/><g transform="translate(-25 -25) scale(1.72)"><use href="#p2"/></g><circle cx="395" cy="115" r="80" fill="none" stroke="#2563eb" stroke-width="8"/><path d="M450 170l45 45" stroke="#2563eb" stroke-width="14" stroke-linecap="round"/><rect x="2" y="2" width="508" height="508" rx="22" fill="none" stroke="#e2e8f0" stroke-width="4"/></g><g transform="translate(1024 0)" clip-path="url(#k)"><rect width="512" height="512" fill="url(#b)"/><g transform="translate(106 106)" filter="url(#s)"><use href="#p3"/></g><rect x="2" y="2" width="508" height="508" rx="22" fill="none" stroke="#e2e8f0" stroke-width="4"/></g><g transform="translate(1024 512)" clip-path="url(#k)"><rect width="512" height="512" fill="url(#b)"/><g transform="translate(270 175)" filter="url(#s)"><use href="#c"/></g><g transform="translate(25 205) scale(.72)"><use href="#p3"/></g><rect x="2" y="2" width="508" height="508" rx="22" fill="none" stroke="#e2e8f0" stroke-width="4"/></g><g transform="translate(1024 1024)" clip-path="url(#k)"><rect width="512" height="512" fill="url(#b)"/><circle cx="395" cy="115" r="80" fill="#dbeafe"/><g transform="translate(-25 -25) scale(1.72)"><use href="#p3"/></g><circle cx="395" cy="115" r="80" fill="none" stroke="#2563eb" stroke-width="8"/><path d="M450 170l45 45" stroke="#2563eb" stroke-width="14" stroke-linecap="round"/><rect x="2" y="2" width="508" height="508" rx="22" fill="none" stroke="#e2e8f0" stroke-width="4"/></g><g transform="translate(1536 0)" clip-path="url(#k)"><rect width="512" height="512" fill="url(#b)"/><g transform="translate(106 106)" filter="url(#s)"><use href="#p4"/></g><rect x="2" y="2" width="508" height="508" rx="22" fill="none" stroke="#e2e8f0" stroke-width="4"/></g><g transform="translate(1536 512)" clip-path="url(#k)"><rect width="512" height="512" fill="url(#b)"/><g transform="translate(270 175)" filter="url(#s)"><use href="#c"/></g><g transform="translate(25 205) scale(.72)"><use href="#p4"/></g><rect x="2" y="2" width="508" height="508" rx="22" fill="none" stroke="#e2e8f0" stroke-width="4"/></g><g transform="translate(1536 1024)" clip-path="url(#k)"><rect width="512" height="512" fill="url(#b)"/><circle cx="395" cy="115" r="80" fill="#dbeafe"/><g transform="translate(-25 -25) scale(1.72)"><use href="#p4"/></g><circle cx="395" cy="115" r="80" fill="none" stroke="#2563eb" stroke-width="8"/><path d="M450 170l45 45" stroke="#2563eb" stroke-width="14" stroke-linecap="round"/><rect x="2" y="2" width="508" height="508" rx="22" fill="none" stroke="#e2e8f0" stroke-width="4"/></g><g transform="translate(2048 0)" clip-path="url(#k)"><rect width="512" height="512" fill="url(#b)"/><g transform="translate(106 106)" filter="url(#s)"><use href="#p5"/></g><rect x="2" y="2" width="508" height="508" rx="22" fill="none" stroke="#e2e8f0" stroke-width="4"/></g><g transform="translate(2048 512)" clip-path="url(#k)"><rect width="512" height="512" fill="url(#b)"/><g transform="translate(270 175)" filter="url(#s)"><use href="#c"/></g><g transform="translate(25 205) scale(.72)"><use href="#p5"/></g><rect x="2" y="2" width="508" height="508" rx="22" fill="none" stroke="#e2e8f0" stroke-width="4"/></g><g transform="translate(2048 1024)" clip-path="url(#k)"><rect width="512" height="512" fill="url(#b)"/><circle cx="395" cy="115" r="80" fill="#dbeafe"/><g transform="translate(-25 -25) scale(1.72)"><use href="#p5"/></g><circle cx="395" cy="115" r="80" fill="none" stroke="#2563eb" stroke-width="8"/><path d="M450 170l45 45" stroke="#2563eb" stroke-width="14" stroke-linecap="round"/><rect x="2" y="2" width="508" height="508" rx="22" fill="none" stroke="#e2e8f0" stroke-width="4"/></g></svg>