<svg xmlns="http://www.w3.org/2000/svg" width="2560" height="1536" viewBox="0 0 2560 1536"><defs><linearGradient id="b"><stop stop-color="#fff"/><stop offset="1" stop-color="#f1f5f9"/></linearGradient><filter id="s"><feDropShadow dy="10" stdDeviation="10" flood-opacity=".18"/></filter><clipPath id="k"><rect width="512" height="512" rx="24"/></clipPath><g id="c"><ellipse cx="115" cy="235" rx="120" ry="25" fill="#cbd5e1"/><rect x="25" y="100" width="180" height="125" rx="20" fill="#fff7ed" stroke="#d6a56f" stroke-width="5"/><path d="M25 140h180M25 180h180" stroke="#e7c59e" stroke-width="8"/></g></defs><g id="p16"><rect x="28" y="48" width="244" height="205" rx="18" fill="#e0f2fe" opacity=".7" stroke="#94a3b8" stroke-width="6"/><path d="M60 55v190M90 55v190M120 55v190M150 55v190M180 55v190M210 55v190M240 55v190M35 82h230M35 112h230M35 142h230M35 172h230M35 202h230M35 232h230" stroke="#cbd5e1" stroke-width="3"/></g><g id="p17" fill="none" stroke="#334155" stroke-width="7"><rect x="40" y="35" width="220" height="60" rx="8"/><rect x="40" y="120" width="220" height="60" rx="8"/><rect x="40" y="205" width="220" height="60" rx="8"/><path d="M60 95v25M240 95v25M60 180v25M240 180v25M60 265v20M240 265v20M60 50h180M60 70h180M60 135h180M60 155h180M60 220h180M60 240h180"/></g><g id="p18" fill="#f8fafc" opacity=".8" stroke="#cbd5e1" stroke-width="4"><path d="M20 95h35v155H20zM30 38h15v57H30zM65 95h35v155H65zM75 38h15v57H75zM110 95h35v155h-35zM120 38h15v57h-15zM155 95h35v155h-35zM165 38h15v57h-15zM200 95h35v155h-35zM210 38h15v57h-15zM245 95h35v155h-35zM255 38h15v57h-15z"/></g><g id="p19"><ellipse cx="150" cy="65" rx="110" ry="36" fill="#f8fafc" stroke="#cbd5e1" stroke-width="7"/><path d="M40 65v175q0 28 220 0V65" fill="none" stroke="#e2e8f0" stroke-width="18"/><path d="M42 110h216M42 145h216M42 180h216M42 215h216" stroke="#94a3b8" stroke-width="5"/></g><g id="p20" fill="#334155" stroke="#0f172a" stroke-width="3"><path d="M20 45l8-12h40l8 12-8 48H28zM90 45l8-12h40l8 12-8 48H98zM160 45l8-12h40l8 12-8 48h-40zM230 45l8-12h40l8 12-8 48h-40zM20 125l8-12h40l8 12-8 48H28zM90 125l8-12h40l8 12-8 48H98zM160 125l8-12h40l8 12-8 48h-40zM230 125l8-12h40l8 12-8 48h-40zM20 205l8-12h40l8 12-8 48H28zM90 205l8-12h40l8 12-8 48H98zM160 205l8-12h40l8 12-8 48h-40zM230 205l8-12h40l8 12-8 48h-40z"/></g><g transform="translate(0 0)" clip-path="url(#k)"><rect width="512" height="512" fill="url(#b)"/><g transform="translate(106 106)" filter="url(#s)"><use href="#p16"/></g><rect x="2" y="2" width="508" height="508" rx="22" fill="none" stroke="#e2e8f0" stroke-width="4"/></g><g transform="translate(0 512)" clip-path="url(#k)"><rect width="512" height="512" fill="url(#b)"/><g transform="translate(270 175)" filter="url(#s)"><use href="#c"/></g><g transform="translate(25 205) scale(.72)"><use href="#p16"/></g><rect x="2" y="2" width="508" height="508" rx="22" fill="none" stroke="#e2e8f0" stroke-width="4"/></g><g transform="translate(0 1024)" clip-path="url(#k)"><rect width="512" height="512" fill="url(#b)"/><circle cx="395" cy="115" r="80" fill="#dbeafe"/><g transform="translate(-25 -25) scale(1.72)"><use href="#p16"/></g><circle cx="395" cy="115" r="80" fill="none" stroke="#2563eb" stroke-width="8"/><path d="M450 170l45 45" stroke="#2563eb" stroke-width="14" stroke-linecap="round"/><rect x="2" y="2" width="508" height="508" rx="22" fill="none" stroke="#e2e8f0" stroke-width="4"/></g><g transform="translate(512 0)" clip-path="url(#k)"><rect width="512" height="512" fill="url(#b)"/><g transform="translate(106 106)" filter="url(#s)"><use href="#p17"/></g><rect x="2" y="2" width="508" height="508" rx="22" fill="none" stroke="#e2e8f0" stroke-width="4"/></g><g transform="translate(512 512)" clip-path="url(#k)"><rect width="512" height="512" fill="url(#b)"/><g transform="translate(270 175)" filter="url(#s)"><use href="#c"/></g><g transform="translate(25 205) scale(.72)"><use href="#p17"/></g><rect x="2" y="2" width="508" height="508" rx="22" fill="none" stroke="#e2e8f0" stroke-width="4"/></g><g transform="translate(512 1024)" clip-path="url(#k)"><rect width="512" height="512" fill="url(#b)"/><circle cx="395" cy="115" r="80" fill="#dbeafe"/><g transform="translate(-25 -25) scale(1.72)"><use href="#p17"/></g><circle cx="395" cy="115" r="80" fill="none" stroke="#2563eb" stroke-width="8"/><path d="M450 170l45 45" stroke="#2563eb" stroke-width="14" stroke-linecap="round"/><rect x="2" y="2" width="508" height="508" rx="22" fill="none" stroke="#e2e8f0" stroke-width="4"/></g><g transform="translate(1024 0)" clip-path="url(#k)"><rect width="512" height="512" fill="url(#b)"/><g transform="translate(106 106)" filter="url(#s)"><use href="#p18"/></g><rect x="2" y="2" width="508" height="508" rx="22" fill="none" stroke="#e2e8f0" stroke-width="4"/></g><g transform="translate(1024 512)" clip-path="url(#k)"><rect width="512" height="512" fill="url(#b)"/><g transform="translate(270 175)" filter="url(#s)"><use href="#c"/></g><g transform="translate(25 205) scale(.72)"><use href="#p18"/></g><rect x="2" y="2" width="508" height="508" rx="22" fill="none" stroke="#e2e8f0" stroke-width="4"/></g><g transform="translate(1024 1024)" clip-path="url(#k)"><rect width="512" height="512" fill="url(#b)"/><circle cx="395" cy="115" r="80" fill="#dbeafe"/><g transform="translate(-25 -25) scale(1.72)"><use href="#p18"/></g><circle cx="395" cy="115" r="80" fill="none" stroke="#2563eb" stroke-width="8"/><path d="M450 170l45 45" stroke="#2563eb" stroke-width="14" stroke-linecap="round"/><rect x="2" y="2" width="508" height="508" rx="22" fill="none" stroke="#e2e8f0" stroke-width="4"/></g><g transform="translate(1536 0)" clip-path="url(#k)"><rect width="512" height="512" fill="url(#b)"/><g transform="translate(106 106)" filter="url(#s)"><use href="#p19"/></g><rect x="2" y="2" width="508" height="508" rx="22" fill="none" stroke="#e2e8f0" stroke-width="4"/></g><g transform="translate(1536 512)" clip-path="url(#k)"><rect width="512" height="512" fill="url(#b)"/><g transform="translate(270 175)" filter="url(#s)"><use href="#c"/></g><g transform="translate(25 205) scale(.72)"><use href="#p19"/></g><rect x="2" y="2" width="508" height="508" rx="22" fill="none" stroke="#e2e8f0" stroke-width="4"/></g><g transform="translate(1536 1024)" clip-path="url(#k)"><rect width="512" height="512" fill="url(#b)"/><circle cx="395" cy="115" r="80" fill="#dbeafe"/><g transform="translate(-25 -25) scale(1.72)"><use href="#p19"/></g><circle cx="395" cy="115" r="80" fill="none" stroke="#2563eb" stroke-width="8"/><path d="M450 170l45 45" stroke="#2563eb" stroke-width="14" stroke-linecap="round"/><rect x="2" y="2" width="508" height="508" rx="22" fill="none" stroke="#e2e8f0" stroke-width="4"/></g><g transform="translate(2048 0)" clip-path="url(#k)"><rect width="512" height="512" fill="url(#b)"/><g transform="translate(106 106)" filter="url(#s)"><use href="#p20"/></g><rect x="2" y="2" width="508" height="508" rx="22" fill="none" stroke="#e2e8f0" stroke-width="4"/></g><g transform="translate(2048 512)" clip-path="url(#k)"><rect width="512" height="512" fill="url(#b)"/><g transform="translate(270 175)" filter="url(#s)"><use href="#c"/></g><g transform="translate(25 205) scale(.72)"><use href="#p20"/></g><rect x="2" y="2" width="508" height="508" rx="22" fill="none" stroke="#e2e8f0" stroke-width="4"/></g><g transform="translate(2048 1024)" clip-path="url(#k)"><rect width="512" height="512" fill="url(#b)"/><circle cx="395" cy="115" r="80" fill="#dbeafe"/><g transform="translate(-25 -25) scale(1.72)"><use href="#p20"/></g><circle cx="395" cy="115" r="80" fill="none" stroke="#2563eb" stroke-width="8"/><path d="M450 170l45 45" stroke="#2563eb" stroke-width="14" stroke-linecap="round"/><rect x="2" y="2" width="508" height="508" rx="22" fill="none" stroke="#e2e8f0" stroke-width="4"/></g></svg>